inDegrees=yes
name=ik_coleta2_mov
DataType=double
version=3
OpenSimVersion=4.4-2022-07-23-0e9fedc
endheader
time	pelvis_tilt	pelvis_list	pelvis_rotation	pelvis_tx	pelvis_ty	pelvis_tz	hip_flexion_r	hip_adduction_r	hip_rotation_r	knee_angle_r	knee_angle_r_beta	ankle_angle_r	subtalar_angle_r	mtp_angle_r	hip_flexion_l	hip_adduction_l	hip_rotation_l	knee_angle_l	knee_angle_l_beta	ankle_angle_l	subtalar_angle_l	mtp_angle_l	lumbar_extension	lumbar_bending	lumbar_rotation	arm_flex_r	arm_add_r	arm_rot_r	elbow_flex_r	pro_sup_r	wrist_flex_r	wrist_dev_r	arm_flex_l	arm_add_l	arm_rot_l	elbow_flex_l	pro_sup_l	wrist_flex_l	wrist_dev_l
5.013963937759399	89.99999999999901	0	0	0	0.93	0	-47.53098560263197	3.593028191149788	3.507710290484367	1.899126123847394	0.03314600377177462	0	0	0	3.762913589003491	0	0	0	-6.350997296715678e-23	0	0	0	0	0	0	0	0	0	0	0	0	0	0	0	0	0	0	0	0
5.018957138061523	89.99999999999901	-7.376263787615334e-16	5.278099715457842e-25	-1.654468019258612e-17	0.93	2.179740637052232e-18	-46.88458546288003	3.548647339272726	3.421203453257449	2.503584378225256	0.04369579050152576	1.478578891167935e-22	1.182216877503713e-22	8.046241854792071e-24	3.990306471394594	-9.797673761750805e-33	-3.343580950900046e-16	0	-3.140340521904609e-17	5.15280296953385e-23	1.854148050802413e-22	-7.004983703456848e-24	0	9.957368578609399e-17	-8.898715964895903e-25	-3.394333092217393e-21	2.538824687157061e-21	-2.017923137169432e-21	0	0	7.181907769556221e-16	7.942974169452604e-15	-3.324740761374448e-21	-3.250086892735722e-23	-1.111768786062809e-22	0	0	5.110887907616555e-16	1.935758949050035e-16
5.022953987121582	89.99999999999901	0	0	0	0.93	0	-46.88967900789684	3.609193106423301	3.479179151645048	1.882366545707976	0.03285349395199652	0	0	0	3.874237186196852	0	0	0	0	0	0	0	0	0	0	0	0	0	0	0	0	0	0	0	0	0	0	0	0
5.026971817016602	89.99999999999901	7.941463870129914e-19	-1.593111245328816e-24	2.13806757527037e-19	0.93	8.651546872320703e-20	-45.42447352159393	3.383820471777669	3.322131414660689	3.239349713800656	0.05653731812935744	9.979661522190768e-16	-5.386024067916539e-17	-1.293012690206998e-16	4.051359063315025	3.484541408458374e-29	4.479682174334201e-22	5.91905618312913e-16	1.033061275738031e-17	1.287349461823647e-15	-9.999545143918322e-16	-3.790423464755318e-16	0	-3.114624323479953e-19	8.493913938099038e-26	-1.133769017527585e-22	1.06747543884845e-17	-1.701454603472375e-16	5.919056884332477e-16	5.919057388862939e-16	-1.707759731179617e-21	1.542222216519962e-21	-4.233893712293196e-16	-5.516214556491685e-17	-6.407265055501658e-16	5.919056884266878e-16	5.919056061166011e-16	6.490241538659721e-21	1.9172365996872e-22
5.033028125762939	89.99999999999901	-7.261140589041732e-18	1.263727011666416e-25	2.892577142739355e-20	0.93	6.792235008644979e-20	-45.43143014285694	3.434318297743579	3.377324881732799	2.689666291227545	0.04694353256182533	-4.697890729359971e-17	-1.589854034249474e-17	-9.395226569931966e-16	3.917215539358764	-2.838325887204094e-30	-6.435138541477464e-22	4.269353319050026e-15	7.451427598017113e-17	1.110839115120143e-16	5.996102479486698e-18	4.345476358923389e-16	0	-1.068385381580614e-20	-2.204498117134861e-26	2.838548158887796e-22	8.472912543020363e-18	1.624115431001022e-18	4.269348847984271e-15	4.268840071035217e-15	-4.819370391644875e-21	-4.677510187615923e-21	2.274063048253201e-17	5.083148448390367e-17	6.981429160495455e-16	4.26929039080786e-15	4.269114855940928e-15	4.144162605500906e-21	-4.144458078744523e-21
5.03998589515686	89.99999999999901	0	0	0	0.93	0	-45.54316016694867	3.370879379883609	3.374845631405833	2.588214495682759	0.0451728646975087	0	0	0	3.901065326699646	0	0	0	-3.082913122306585e-39	0	0	0	0	0	0	0	0	0	0	0	0	0	0	0	0	2.112940373580944e-39	0	0	0
5.048965930938721	89.99999999999901	0	0	0	0.93	0	-45.54773156521043	3.404607212995928	3.422852446407974	2.144890944222657	0.03743540907289541	0	0	0	3.818827489981992	0	0	0	0	0	0	0	0	0	0	0	0	0	0	0	0	0	0	0	0	0	0	0	0
5.055972099304199	89.99999999999901	0	0	0	0.93	0	-45.55721476356847	3.436711348120217	3.42760509897036	1.700319341888468	0.02967617085129691	0	0	0	3.657391681719019	0	0	1.382713779872055e-37	0	0	0	0	0	0	0	0	0	0	0	1.052357267868557e-37	0	0	0	0	0	1.715140632463354e-39	0	0	0
5.059982776641846	90.00000000001137	-6.647004153411803e-11	-7.373922177407249e-11	-5.023694965767753e-17	0.93	2.709675568192202e-17	-45.81397143552197	3.366484939061992	3.442616967935587	1.460431114997311	0.02548933145577612	3.448332355231631e-13	9.837401564636984e-15	-4.599869596570924e-15	3.582749804204802	6.128937476426615e-25	-1.012607439284003e-20	8.628429974600185e-06	1.505945112162003e-07	1.110380123796822e-14	7.297633832789834e-17	3.72936371302602e-15	4.773137998429992e-19	1.001881063105862e-17	-2.629012012494129e-18	-1.317726123707651e-18	-3.737952442590474e-12	-2.780282618369086e-13	8.684433615145291e-06	8.68443423814132e-06	-1.437498993313686e-16	-4.969628733674869e-15	-6.871981074182678e-15	-9.358522156158317e-15	-8.345626942218135e-13	8.684433616122152e-06	8.684434237157244e-06	-5.673095235174181e-15	-1.330736606978237e-14
5.066973924636841	89.99999999999901	0	0	0	0.93	0	-45.82674667835401	3.370426045129966	3.413063148381726	1.154061783273167	0.02014217788955398	0	0	0	3.484943522962937	0	0	0	-5.435200684760832e-41	0	0	0	0	0	0	0	0	0	8.221541155223099e-41	0	0	0	0	0	0	8.221541155223099e-41	0	0	0
5.07098913192749	89.99999999999901	6.250160285324931e-33	-3.448364295351686e-33	0	0.93	0	-46.64713099486089	3.209161033544158	3.475657489458001	0.462031189541923	0.008063965504412548	1.138580680733959e-36	0	0	3.386431014378549	4.310455369189608e-35	5.285773343231357e-36	0	2.204051907791789e-39	0	-1.130461908843176e-40	0	0	0	0	3.008775755018333e-36	-3.839570696369748e-38	0	0	0	0	0	0	3.595685936894786e-36	0	0	2.104714535737113e-38	0	0
5.075955867767334	89.99999999999901	0	0	0	0.93	0	-46.61985711978196	3.206383769367312	3.431995561788575	0.3269228400155639	0.005705879958242259	0	0	0	3.318758120616689	0	0	0	1.019107051238133e-39	0	0	0	0	0	0	0	0	0	0	1.683771628589691e-37	0	0	0	0	0	0	1.683771628589691e-37	0	0
5.0799720287323	89.99999999999901	0	0	0	0.93	0	-48.65753634305334	2.494091516875299	3.560476032077122	0.03113353400127462	0.0005433826761038467	0	0	0	3.356922938548002	0	0	0	7.346839692639297e-40	0	0	0	0	0	0	0	0	0	1.331876871168392e-39	0	0	0	0	0	0	0	0	0	0
5.083966970443726	89.99999999999901	0	0	0	0.93	0	-48.60293549483932	2.522566147900692	3.458693320382262	0.02984795086587557	0.0005209450175830212	0	0	0	3.313872161216065	0	0	0	0	0	0	0	0	0	0	0	0	0	0	0	0	0	0	0	0	0	0	0	0
5.08796501159668	89.99999999999901	1.293136610756882e-33	1.465554825524467e-33	3.262652233999262e-55	0.93	0	-49.16571422600262	2.465399627600977	3.459253222446821	0.0233973530547925	0.0004083608470576823	-8.805442907387915e-49	0	0	3.334076642796659	6.789818329789118e-61	5.695712435981563e-54	1.568134528202648e-45	-6.158049892052419e-48	1.761088581477583e-48	0	-5.972387363271804e-48	0	9.95397893878634e-49	0	9.34681015135436e-54	0	0	5.488470848709268e-46	5.488470848709268e-46	4.55656994878525e-53	3.286443155496334e-55	-3.981591575514536e-48	0	0	5.488470848709268e-46	5.488470848709268e-46	-1.779910136244238e-55	3.875313082998429e-56
5.09396505355835	89.99999999999901	0	0	0	0.93	0	-50.24177861541312	2.211418716928274	3.321544130341272	0.04067329992587201	0.0007098830013576321	0	0	0	3.362031384170303	0	0	0	0	0	0	0	0	0	0	0	0	0	0	0	0	0	0	0	0	0	0	0	0
5.099967002868652	89.99999999999901	0	0	0	0.93	0	-53.32539566087756	2.118805078552508	2.93310637526243	0.01370616591486156	0.000239217723038955	0	0	0	3.39003303407009	0	0	0	1.175494350822288e-38	0	0	0	0	0	0	0	0	0	0	0	0	0	0	0	0	0	0	0	0
5.104959011077881	89.99999999999901	0	0	0	0.93	0	-53.31539560060448	2.115634668966961	2.930117335321895	0.01367469923631915	0.0002386685258937232	0	0	0	3.401740331067848	0	0	0	0	0	0	0	0	0	0	0	0	0	0	0	0	0	0	0	0	0	0	0	0
5.108949899673462	89.99999999999483	1.176475369064947e-12	9.458531399896293e-13	0	0.93	0	-56.85010576021053	2.231092061712806	2.285071917849659	0.007839202003279644	0.0001368198855835887	7.634267889254245e-29	0	0	3.426131937195311	-6.107414293906967e-29	0	9.650145327007282e-07	1.684268091634998e-08	7.634267889254245e-29	0	0	0	0	0	0	0	0	9.650145327275266e-07	9.650145327275266e-07	0	2.391217853922868e-43	0	0	0	9.650145327275266e-07	9.650145327275266e-07	0	2.391217853922868e-43
5.112961053848267	89.99999999999901	0	0	0	0.93	0	-57.41611274876748	1.960739842745581	2.385880145478354	0.008512644805599563	0.000148573679910505	0	0	0	3.468271451671319	0	0	0	-1.271817135299009e-40	0	0	0	0	0	0	0	0	0	0	0	0	0	0	0	0	0	0	0	0
5.122979164123535	89.99999999999901	0	0	0	0.93	0	-58.56932257568608	2.067138107509624	2.174166522004903	0.007414376514068836	0.0001294052821530409	0	0	0	3.533335523160828	0	0	0	-1.271817135299009e-40	0	0	0	0	0	0	0	0	0	0	0	0	0	0	0	0	0	0	0	0
5.131951808929443	89.99999999999901	0	0	0	0.93	0	-59.81105653510423	2.193409124824668	1.893266571453274	0.006526512443798507	0.0001139091308166653	0	0	0	3.621493230391752	0	0	0	0	0	0	0	0	0	0	0	0	0	0	0	0	0	0	0	0	0	0	0	0
5.136960983276367	89.99999999999901	4.310455369189608e-34	1.131494534412272e-34	0	0.93	0	-59.94612779834364	2.159789381488398	1.913702961403778	0.006593941014931762	0.0001150859813928558	0	0	0	3.721975810550331	0	0	5.488470848709268e-46	9.579188720970429e-48	0	0	0	0	0	0	0	0	0	4.508386768582613e-46	5.292454032683937e-46	0	7.650786880020792e-65	0	0	0	4.508386768582613e-46	5.292454032683937e-46	0	7.650786880020792e-65
